<?xml version="1.0" encoding="UTF-8"?>
<svg xmlns="http://www.w3.org/2000/svg" xmlns:xlink="http://www.w3.org/1999/xlink" viewBox="0 0 1500 1500">
  <defs>
    <style>
      .cls-1 {
        fill: url(#linear-gradient-8);
      }

      .cls-2 {
        fill: url(#linear-gradient-7);
      }

      .cls-3 {
        fill: url(#linear-gradient-5);
      }

      .cls-4 {
        fill: url(#linear-gradient-6);
      }

      .cls-5 {
        fill: url(#linear-gradient-9);
      }

      .cls-6 {
        fill: url(#linear-gradient-4);
      }

      .cls-7 {
        fill: url(#linear-gradient-3);
      }

      .cls-8 {
        fill: url(#linear-gradient-2);
      }

      .cls-9 {
        fill: url(#linear-gradient);
      }

      .cls-10 {
        fill: #0b0b0b;
      }

      .cls-11 {
        fill: #fff;
      }
    </style>
    <linearGradient id="linear-gradient" x1="1231.22" y1="904.9" x2="266.46" y2="1038.7" gradientUnits="userSpaceOnUse">
      <stop offset=".19" stop-color="#ababab"/>
      <stop offset=".24" stop-color="#b7b7b7"/>
      <stop offset=".47" stop-color="#eaeaea"/>
      <stop offset=".58" stop-color="#fff"/>
      <stop offset=".7" stop-color="#d3d3d3"/>
      <stop offset=".82" stop-color="#b1b1b1"/>
      <stop offset=".92" stop-color="#9d9d9d"/>
      <stop offset=".98" stop-color="#969696"/>
    </linearGradient>
    <linearGradient id="linear-gradient-2" x1="947.35" y1="1087.94" x2="1034.25" y2="966.27" gradientUnits="userSpaceOnUse">
      <stop offset=".53" stop-color="#fff"/>
      <stop offset="1" stop-color="#848689"/>
    </linearGradient>
    <linearGradient id="linear-gradient-3" x1="727.48" y1="713.18" x2="906.83" y2="626.59" xlink:href="#linear-gradient-2"/>
    <linearGradient id="linear-gradient-4" x1="818.33" y1="615.08" x2="739.63" y2="819.45" xlink:href="#linear-gradient-2"/>
    <linearGradient id="linear-gradient-5" x1="1075.82" y1="583.54" x2="836.79" y2="616.69" gradientUnits="userSpaceOnUse">
      <stop offset="0" stop-color="#a3a3a3"/>
      <stop offset=".12" stop-color="#c1c1c1"/>
      <stop offset=".28" stop-color="#e3e3e3"/>
      <stop offset=".4" stop-color="#f7f7f7"/>
      <stop offset=".49" stop-color="#fff"/>
      <stop offset=".61" stop-color="#eee"/>
      <stop offset=".84" stop-color="#c4c4c4"/>
      <stop offset=".9" stop-color="#bababa"/>
    </linearGradient>
    <linearGradient id="linear-gradient-6" x1="553.19" y1="574.17" x2="715.35" y2="953.75" xlink:href="#linear-gradient-2"/>
    <linearGradient id="linear-gradient-7" x1="826.59" y1="528.06" x2="555.67" y2="550.18" xlink:href="#linear-gradient-2"/>
    <linearGradient id="linear-gradient-8" x1="734.8" y1="869.74" x2="458.95" y2="1032.48" xlink:href="#linear-gradient-2"/>
    <linearGradient id="linear-gradient-9" x1="810.22" y1="567.09" x2="325.76" y2="634.27" gradientUnits="userSpaceOnUse">
      <stop offset=".19" stop-color="#b8b8b8"/>
      <stop offset=".24" stop-color="#c1c1c1"/>
      <stop offset=".4" stop-color="#e3e3e3"/>
      <stop offset=".55" stop-color="#f7f7f7"/>
      <stop offset=".64" stop-color="#fff"/>
      <stop offset=".69" stop-color="#eee"/>
      <stop offset=".77" stop-color="#c3c3c3"/>
      <stop offset=".89" stop-color="#828282"/>
    </linearGradient>
  </defs>
  <g id="Layer_2" data-name="Layer 2">
    <rect class="cls-10" width="1500" height="1500"/>
  </g>
  <g id="Layer_1" data-name="Layer 1">
    <path class="cls-9" d="M260.26,987.04c78.74-26.75,159.52-47.9,241.53-62.83l15.38-2.79c2.56-.48,5.13-.9,7.7-1.31l7.72-1.24c10.3-1.62,20.58-3.32,30.92-4.66,10.33-1.41,20.64-2.95,31-4.09,10.36-1.2,20.7-2.57,31.08-3.5,41.51-4.06,83.19-6.62,124.92-7.22,10.43-.07,20.86-.29,31.3-.07,10.43.14,20.87.16,31.29.6l15.64.52,3.91.13,3.91.21,7.81.42,15.63.87c2.6.13,5.2.34,7.8.56l7.8.63c41.6,3.29,83.07,8.33,124.13,15.64,82.15,14.43,162.85,37.04,239.99,68.15-78.82-26.51-159.61-46.45-241.5-59.02-40.95-6.21-82.13-10.85-123.44-13.52l-7.74-.52c-2.58-.18-5.16-.36-7.75-.45l-15.5-.75-7.75-.39-3.88-.19-3.88-.11-15.52-.44c-10.34-.39-20.69-.36-31.04-.46-10.35-.17-20.7.1-31.04.21-5.17.06-10.35.12-15.52.32l-15.52.46c-10.35.21-20.68.88-31.02,1.35-10.34.42-20.66,1.3-30.99,1.98-10.33.63-20.63,1.7-30.95,2.59-10.33.79-20.61,2-30.91,3.05-10.31.99-20.58,2.38-30.86,3.63-10.29,1.19-20.53,2.74-30.79,4.2-5.12.77-10.27,1.38-15.38,2.21l-15.35,2.42c-81.87,13.14-162.9,31.58-243.14,53.42Z"/>
    <path class="cls-8" d="M1145.93,1062.11l-190.23-58.16s-41.27-26.35-79.58-68.47c17.7-5.65,53.67-23.13,53.67-23.13,65.37,60.42,138.45,108.72,216.15,149.77Z"/>
    <g>
      <path class="cls-7" d="M1145.93,1062.11c-77.7-41.04-150.78-89.35-216.15-149.77-79.69-248.32-125.97-507.82-154.01-773.43,64.27,345.04,176.22,800.26,370.16,923.2Z"/>
      <path class="cls-6" d="M929.78,912.35s-35.97,17.48-53.67,23.13c-8.32-10.18-71.24-279.42-86.04-430.23-11.11-112.88-14.3-366.33-14.3-366.33,28.04,265.6,74.32,525.11,154.01,773.43Z"/>
      <path class="cls-3" d="M775.77,138.92c-.11,1.01.03,2.05.07,3.07l.23,3.08.53,6.15,1.19,12.29c.83,8.19,1.72,16.37,2.65,24.55,1.84,16.36,3.84,32.7,5.93,49.03,4.19,32.66,8.76,65.26,13.66,97.81,9.8,65.11,20.95,130.01,33.49,194.64,12.55,64.62,26.57,128.96,42.62,192.8,16.07,63.83,34.22,127.1,54.49,189.72l-.28-.4h0c16.57,13.72,33.39,27.16,50.35,40.42,16.96,13.25,34.09,26.28,51.46,38.99,17.37,12.7,34.97,25.1,53,36.82,9.03,5.84,18.15,11.54,27.48,16.86,9.33,5.3,18.85,10.34,28.77,14.34l-.67,1.68c-10.06-4.06-19.62-9.12-29-14.45-9.37-5.34-18.52-11.06-27.57-16.91-18.07-11.75-35.69-24.17-53.08-36.88-17.39-12.72-34.53-25.77-51.51-39.02-16.97-13.27-33.79-26.72-50.39-40.45h0s-.19-.15-.19-.15l-.09-.25c-22.08-62.1-39.78-125.67-55.61-189.6-15.8-63.96-29.57-128.4-41.86-193.11-12.27-64.71-22.99-129.71-32.43-194.88-4.71-32.59-9.1-65.22-13.1-97.91-2-16.34-3.9-32.69-5.68-49.06-.89-8.18-1.75-16.37-2.55-24.56l-1.14-12.29-.51-6.15-.21-3.08c-.04-1.02-.18-2.06-.06-3.08Z"/>
    </g>
    <g>
      <path class="cls-4" d="M749.96,140.08c-28.04,265.6-74.32,525.11-154.01,773.43-65.35,60.42-138.33,108.71-216.03,149.76,193.95-122.93,305.79-578.15,370.04-923.19Z"/>
      <path class="cls-2" d="M749.95,140.11s-3.38,253.51-14.48,366.39c-14.79,150.81-77.72,420.05-86.04,430.23-17.7-5.65-53.67-23.13-53.67-23.13,79.69-248.32,126.15-507.88,154.19-773.49Z"/>
      <path class="cls-1" d="M649.42,936.73c-38.11,43.1-79.56,68.47-79.56,68.47l-190.25,58.16c77.7-41.04,150.8-89.35,216.15-149.77,0,0,35.97,17.48,53.67,23.13Z"/>
      <path class="cls-5" d="M749.72,141.13l-5,49.06-5.52,49.01-6.07,48.95-6.7,48.87c-9.3,65.11-20.11,130-32.58,194.58l-9.67,48.38-10.3,48.25-10.95,48.11-11.68,47.93-12.38,47.76-13.15,47.55-13.9,47.34-14.71,47.09-.07.23-.18.17c-7.96,7.22-15.98,14.36-24.21,21.26-4.13,3.44-8.23,6.9-12.43,10.24-4.17,3.38-8.35,6.76-12.59,10.05-16.96,13.17-34.24,25.94-51.95,38.09-17.7,12.16-35.67,23.92-54.07,35-4.62,2.74-9.21,5.52-13.84,8.22-4.66,2.66-9.3,5.36-13.98,7.98l-14.14,7.7-14.28,7.42,14.09-7.76,13.94-8.03,13.82-8.23c4.59-2.77,9.13-5.63,13.69-8.44,18.15-11.42,36.04-23.24,53.56-35.59,17.51-12.36,34.81-25.03,51.67-38.26,4.25-3.26,8.44-6.61,12.62-9.96,4.21-3.32,8.32-6.75,12.46-10.15,4.16-3.38,8.21-6.88,12.32-10.32,4.09-3.46,8.08-7.03,12.13-10.55l-.26.4,14.16-47.22,13.58-47.39,12.96-47.56,12.36-47.72,11.72-47.88,11.14-48.02,10.5-48.17,9.86-48.3c12.74-64.49,23.82-129.31,33.4-194.36l6.9-48.82,6.44-48.89,5.92-48.96,5.4-49.02Z"/>
    </g>
    <g>
      <g>
        <path class="cls-11" d="M362.27,1173.94h11.59l49.95,83.12h-13.31l-12.84-21.81h-59.66l-13,21.81h-12.68l49.96-83.12ZM392.81,1226.87l-24.9-42.09-25.06,42.09h49.96Z"/>
        <path class="cls-11" d="M477.43,1174.52h90.07v8.49h-76.01v28.18h68v8.49h-68v28.88h76.9v8.49h-90.96v-82.53Z"/>
        <path class="cls-11" d="M951.32,1174.52h90.07v8.49h-76.01v28.18h68v8.49h-68v28.88h76.9v8.49h-90.96v-82.53Z"/>
        <path class="cls-11" d="M663.46,1183.13h-46.32v-8.61h104.53v8.61h-47.19v73.92h-11.02v-73.92Z"/>
        <path class="cls-11" d="M779.38,1174.52h14.56v36.67h74.48v-36.67h14.56v82.53h-14.56v-37.14h-74.48v37.14h-14.56v-82.53Z"/>
        <path class="cls-11" d="M1101.74,1174.52h60.9c12.51,0,22.55,3.07,28.95,8.25,4.95,4.01,7.86,9.79,7.86,16.27v.24c0,13.68-11.64,21.69-27.64,24.05l31.28,33.72h-14.11l-29.53-32.07h-46.2v32.07h-11.49v-82.53ZM1161.62,1216.61c15.28,0,26.19-6.37,26.19-16.98v-.23c0-10.14-9.6-16.27-26.04-16.27h-48.53v33.48h48.39Z"/>
      </g>
      <g>
        <path class="cls-11" d="M573.85,1329.34h5.17l22.31,31.74h-5.94l-5.73-8.33h-26.64l-5.8,8.33h-5.66l22.31-31.74ZM587.49,1349.56l-11.12-16.07-11.19,16.07h22.31Z"/>
        <path class="cls-11" d="M640.34,1329.57h35.38v3.24h-29.86v10.76h26.71v3.24h-26.71v11.03h30.21v3.24h-35.73v-31.52Z"/>
        <path class="cls-11" d="M716.55,1329.57h21.05c6.01,0,10.84,1.17,13.92,3.15,2.38,1.53,3.78,3.74,3.78,6.21v.09c0,5.22-5.59,8.28-13.29,9.18l15.03,12.88h-6.78l-14.2-12.25h-13.99v12.25h-5.52v-31.52ZM737.11,1345.64c7.34,0,12.59-2.43,12.59-6.48v-.09c0-3.87-4.62-6.21-12.52-6.21h-15.1v12.79h15.03Z"/>
        <path class="cls-11" d="M796.96,1329.57h5.52v31.52h-5.52v-31.52Z"/>
        <path class="cls-11" d="M864.29,1329.34h5.18l22.31,31.74h-5.94l-5.73-8.33h-26.64l-5.8,8.33h-5.66l22.31-31.74ZM877.93,1349.56l-11.12-16.07-11.19,16.07h22.31Z"/>
        <path class="cls-11" d="M930.78,1329.57h5.52v28.23h27.55v3.29h-33.08v-31.52Z"/>
      </g>
    </g>
  </g>
</svg>